<?xml version="1.0" standalone="no"?>
<!DOCTYPE svg PUBLIC "-//W3C//DTD SVG 20010904//EN"
 "http://www.w3.org/TR/2001/REC-SVG-20010904/DTD/svg10.dtd">
<svg version="1.0" xmlns="http://www.w3.org/2000/svg"
 width="512.000000pt" height="512.000000pt" viewBox="0 0 512.000000 512.000000"
 preserveAspectRatio="xMidYMid meet">
<metadata>
Created by potrace 1.14, written by Peter Selinger 2001-2017
</metadata>
<g transform="translate(0.000000,512.000000) scale(0.100000,-0.100000)"
fill="#000000" stroke="none">
<path d="M2295 4849 c-539 -66 -1014 -302 -1391 -691 -361 -373 -578 -838
-634 -1356 -17 -157 -7 -493 18 -632 89 -474 293 -874 616 -1208 197 -203 393
-346 641 -467 217 -107 403 -167 650 -211 145 -27 576 -27 725 -1 389 69 719
209 1025 437 129 96 351 317 449 447 256 342 411 734 457 1153 16 151 6 474
-20 626 -147 858 -770 1565 -1601 1817 -234 71 -423 98 -685 96 -99 -1 -211
-5 -250 -10z m471 -150 c392 -39 758 -180 1079 -418 128 -95 341 -308 436
-436 559 -756 571 -1769 30 -2529 l-56 -79 -12 74 c-6 41 -16 124 -22 185 -19
198 -63 298 -180 415 -57 57 -95 85 -151 111 -127 60 -150 63 -514 63 l-330 0
-150 -362 c-83 -200 -154 -363 -157 -363 -3 0 -11 21 -17 48 -6 26 -34 128
-61 227 l-49 180 89 90 c96 98 106 122 70 166 -19 23 -24 24 -203 27 -175 3
-185 2 -211 -18 -19 -15 -27 -31 -27 -54 0 -27 14 -46 89 -123 l89 -90 -62
-226 c-33 -125 -63 -227 -66 -227 -3 0 -73 163 -156 363 l-150 362 -295 3
c-306 3 -389 -4 -487 -38 -129 -46 -255 -153 -317 -271 -40 -77 -75 -200 -75
-268 -1 -25 -9 -98 -18 -161 l-18 -115 -66 95 c-241 348 -370 732 -385 1150
-18 497 133 976 433 1376 73 98 244 275 346 360 430 359 1015 538 1574 483z"/>
<path d="M2445 4289 c-460 -57 -805 -453 -805 -923 0 -391 268 -752 645 -869
338 -105 701 -10 946 249 101 107 169 227 215 380 25 81 28 103 28 249 0 146
-3 168 -28 249 -47 156 -115 274 -220 384 -153 160 -341 254 -561 281 -100 12
-120 12 -220 0z"/>
</g>
</svg>
