<?xml version="1.0" standalone="no"?>
<!DOCTYPE svg PUBLIC "-//W3C//DTD SVG 20010904//EN"
 "http://www.w3.org/TR/2001/REC-SVG-20010904/DTD/svg10.dtd">
<svg version="1.0" xmlns="http://www.w3.org/2000/svg"
 width="204.000000pt" height="204.000000pt" viewBox="0 0 204.000000 204.000000"
 preserveAspectRatio="xMidYMid meet">
<metadata>
Created by potrace 1.14, written by Peter Selinger 2001-2017
</metadata>
<g transform="translate(0.000000,204.000000) scale(0.100000,-0.100000)"
fill="#000000" stroke="none">
<path d="M968 1939 c-62 -5 -123 -15 -158 -24 -3 -1 -20 -5 -39 -9 -123 -29
-296 -133 -405 -243 -472 -476 -303 -1276 324 -1526 100 -40 195 -59 310 -62
93 -3 131 1 245 21 64 12 197 68 275 116 139 85 308 267 284 305 -20 32 -43
22 -93 -40 -54 -68 -108 -123 -115 -116 -2 2 -6 29 -10 60 -11 112 -82 248
-169 325 -51 45 -155 104 -183 104 -11 0 3 19 44 55 43 39 71 76 94 123 30 61
33 74 33 162 0 88 -3 101 -33 163 -42 85 -94 137 -180 179 -61 30 -74 33 -162
33 -87 0 -101 -3 -160 -32 -84 -41 -145 -102 -184 -183 -28 -59 -31 -74 -31
-160 0 -87 3 -101 32 -161 21 -41 53 -85 88 -118 30 -29 55 -54 55 -57 0 -2
-7 -4 -16 -4 -37 0 -161 -84 -219 -148 -67 -76 -121 -201 -127 -297 -2 -25 -5
-45 -8 -45 -29 1 -155 161 -204 259 -63 123 -87 224 -91 373 -5 233 79 449
241 614 130 133 268 209 454 249 85 19 294 14 375 -8 367 -100 626 -407 652
-776 7 -97 28 -125 66 -86 21 20 11 138 -22 266 -94 366 -425 649 -801 684
-36 4 -69 7 -75 9 -5 1 -45 -1 -87 -5z m194 -468 c58 -28 121 -91 150 -150 31
-64 32 -186 1 -252 -30 -66 -86 -124 -151 -156 -116 -57 -270 -28 -356 67 -63
70 -80 114 -80 210 -1 68 4 94 22 130 39 78 96 130 177 163 58 23 177 17 237
-12z m39 -682 c190 -62 313 -224 318 -421 l2 -73 -53 -32 c-165 -98 -369 -137
-573 -110 -80 11 -215 59 -292 104 -54 32 -63 41 -64 68 -6 136 31 239 121
338 96 105 198 145 371 146 81 1 120 -4 170 -20z"/>
<path d="M1872 788 c-20 -24 -24 -64 -8 -77 22 -18 55 -4 62 26 11 44 -28 81
-54 51z"/>
</g>
</svg>
